<svg xmlns="http://www.w3.org/2000/svg" height="28" width="210" viewBox="0 0 209.69 27.69" class="jcw-vvEHZx"><polygon fill="currentColor" points="63.59 23.69 63.59 3.98 59.85 3.98 59.85 19.92 49.84 3.98 43.91 3.98 43.91 23.69 47.64 23.69 47.64 7.75 57.66 23.69 63.59 23.69" style="fill: rgb(0, 0, 0) !important;"/><polygon fill="currentColor" points="86.59 7.71 86.59 3.98 70.91 3.98 70.91 23.69 86.59 23.69 86.59 19.96 74.64 19.96 74.64 15.66 85.72 15.66 85.72 11.95 74.64 11.95 74.64 7.71 86.59 7.71" style="fill: rgb(0, 0, 0) !important;"/><path d="M101.74,3.56C96.16,3.56,92,8,92,13.83s4.2,10.27,9.77,10.27,9.77-4.42,9.77-10.27S107.31,3.56,101.74,3.56Zm0,16.82c-3.67,0-6-2.57-6-6.54s2.37-6.54,6-6.54,6,2.57,6,6.54S105.41,20.37,101.74,20.37Z" fill="currentColor" style="fill: rgb(0, 0, 0) !important;"/><polygon fill="currentColor" points="129.69 3.98 113.92 3.98 113.92 7.71 119.85 7.71 119.85 23.69 123.65 23.69 123.65 7.71 129.69 7.71 129.69 3.98" style="fill: rgb(0, 0, 0) !important;"/><path d="M143.21,16.62l3.61,7.08h4.44L147,15.85l.1-.07a6.24,6.24,0,0,0,3.46-5.6A6.37,6.37,0,0,0,144,4H134V23.69h3.72V16.55h5.49Zm-5.53-8.91h6.18c1.84,0,3,1,3,2.57s-1.14,2.57-3,2.57h-6.18Z" fill="currentColor" style="fill: rgb(0, 0, 0) !important;"/><rect height="19.72" width="3.86" fill="currentColor" x="157.94" y="3.98" style="fill: rgb(0, 0, 0) !important;"/><polygon fill="currentColor" points="209.69 7.71 209.69 3.98 194 3.98 194 23.69 209.69 23.69 209.69 19.96 197.66 19.96 197.66 15.66 208.69 15.66 208.69 11.95 197.63 11.95 197.63 7.71 209.69 7.71" style="fill: rgb(0, 0, 0) !important;"/><path d="M181,4H169.83V23.69h11a6,6,0,0,0,3.32-.93A5.79,5.79,0,0,0,186.78,18a5.36,5.36,0,0,0-1.64-4.17h0l0,0,.05,0a5,5,0,0,0,1.64-4A5.82,5.82,0,0,0,181,4Zm-.24,15.88h-7.05V15.48h7.12a2.29,2.29,0,0,1,1.62.68,2.14,2.14,0,0,1,.52,2.18A2.29,2.29,0,0,1,180.71,19.86Zm0-7.67h-7V7.81h7.09a2.29,2.29,0,0,1,1.62.68,2.14,2.14,0,0,1,.52,2.18A2.29,2.29,0,0,1,180.71,12.19Z" fill="currentColor" style="fill: rgb(0, 0, 0) !important;"/><polygon fill="currentColor" points="7.94 8.05 7.94 27.69 27.6 27.69 27.6 0 24 0 24 23.98 11.68 23.98 11.68 8.05 7.94 8.05" style="fill: rgb(0, 0, 0) !important;"/><polygon fill="currentColor" points="19.64 19.62 19.64 0 0 0 0 27.69 3.71 27.69 3.71 3.69 16.03 3.69 16.03 19.62 19.64 19.62" style="fill: rgb(0, 0, 0) !important;"/></svg>